HIERARCHY
ROOT joint_Root
{
	OFFSET 0.0 0.0 0.0
	CHANNELS 6 Xposition Yposition Zposition Zrotation Xrotation Yrotation 
	JOINT Hips
	{
		OFFSET -17.1583 93.1646 452.98
		CHANNELS 6 Xposition Yposition Zposition Zrotation Xrotation Yrotation 
		JOINT Spine
		{
			OFFSET 15.7357 0.0 0.0
			CHANNELS 6 Xposition Yposition Zposition Zrotation Xrotation Yrotation 
			JOINT Chest
			{
				OFFSET 8.98455 -0.406207 0.0
				CHANNELS 6 Xposition Yposition Zposition Zrotation Xrotation Yrotation 
				JOINT Neck
				{
					OFFSET 16.3773 0.0 0.0
					CHANNELS 6 Xposition Yposition Zposition Zrotation Xrotation Yrotation 
					JOINT Head
					{
						OFFSET 6.45672 0.0 0.0
						CHANNELS 6 Xposition Yposition Zposition Zrotation Xrotation Yrotation 
						End Site
						{
							OFFSET 0.0 0.0 0.0
						}
					}
				}
				JOINT Shoulder_L
				{
					OFFSET 12.9942 -0.242716 4.98039
					CHANNELS 6 Xposition Yposition Zposition Zrotation Xrotation Yrotation 
					JOINT UpperArm_L
					{
						OFFSET 5.34809 0.0 0.0
						CHANNELS 6 Xposition Yposition Zposition Zrotation Xrotation Yrotation 
						JOINT LowerArm_L
						{
							OFFSET 24.3286 1.87007e-05 0.0
							CHANNELS 6 Xposition Yposition Zposition Zrotation Xrotation Yrotation 
							JOINT Hand_L
							{
								OFFSET 22.2916 0.0 0.0
								CHANNELS 6 Xposition Yposition Zposition Zrotation Xrotation Yrotation 
								End Site
								{
									OFFSET 0.0 0.0 0.0
								}
							}
						}
					}
				}
				JOINT Shoulder_R
				{
					OFFSET 12.9945 -0.242716 -4.98039
					CHANNELS 6 Xposition Yposition Zposition Zrotation Xrotation Yrotation 
					JOINT UpperArm_R
					{
						OFFSET -5.34813 0.0 0.0
						CHANNELS 6 Xposition Yposition Zposition Zrotation Xrotation Yrotation 
						JOINT LowerArm_R
						{
							OFFSET -24.3289 0.000322201 0.0
							CHANNELS 6 Xposition Yposition Zposition Zrotation Xrotation Yrotation 
							JOINT Hand_R
							{
								OFFSET -22.2915 -0.000108084 0.0
								CHANNELS 6 Xposition Yposition Zposition Zrotation Xrotation Yrotation 
								End Site
								{
									OFFSET 0.0 0.0 0.0
								}
							}
						}
					}
				}
			}
		}
		JOINT UpperLeg_L
		{
			OFFSET -2.19248 -6.46944 0.0
			CHANNELS 6 Xposition Yposition Zposition Zrotation Xrotation Yrotation 
			JOINT LowerLeg_L
			{
				OFFSET 39.0811 0.0 -1.23785e-05
				CHANNELS 6 Xposition Yposition Zposition Zrotation Xrotation Yrotation 
				JOINT Foot_L
				{
					OFFSET 40.9854 0.0 -1.26872e-05
					CHANNELS 6 Xposition Yposition Zposition Zrotation Xrotation Yrotation 
					JOINT Toes_L
					{
						OFFSET 11.7543 0.0 0.0
						CHANNELS 6 Xposition Yposition Zposition Zrotation Xrotation Yrotation 
						End Site
						{
							OFFSET 0.0 0.0 0.0
						}
					}
				}
			}
		}
		JOINT UpperLeg_R
		{
			OFFSET -2.19251 6.46944 0.0
			CHANNELS 6 Xposition Yposition Zposition Zrotation Xrotation Yrotation 
			JOINT LowerLeg_R
			{
				OFFSET -39.0811 -0.00228153 -0.0401928
				CHANNELS 6 Xposition Yposition Zposition Zrotation Xrotation Yrotation 
				JOINT Foot_R
				{
					OFFSET -40.9854 0.0 0.0
					CHANNELS 6 Xposition Yposition Zposition Zrotation Xrotation Yrotation 
					JOINT Toes_R
					{
						OFFSET -11.7543 0.0 0.0
						CHANNELS 6 Xposition Yposition Zposition Zrotation Xrotation Yrotation 
						End Site
						{
							OFFSET 0.0 0.0 0.0
						}
					}
				}
			}
		}
	}
}
MOTION
Frames:	8
Frame Time:	0.0333333
0.000000 0.000000 0.000000 0.000000 0.000000 -0.000000 0.472541 89.514500 -32.284300 85.814200 -0.509400 -11.198800 15.735700 0.000005 -0.000001 45.749800 85.409600 -42.450800 8.984550 -0.406207 -0.000000 -0.989616 -6.656800 6.543690 16.377300 -0.000001 -0.000001 -4.173180 5.638030 -1.077530 6.456720 -0.000001 -0.000000 1.923930 11.319000 -8.708880 12.994200 -0.242716 4.980390 -92.511500 8.693080 -73.817500 5.348090 -0.000007 -0.000001 -73.521000 -8.663690 2.072000 24.328600 0.000019 0.000005 44.681400 20.422800 -70.567700 22.291600 -0.000001 0.000005 43.189900 4.067050 23.266400 12.994500 -0.242716 -4.980390 89.877500 0.392724 -72.669500 -5.348130 -0.000001 -0.000004 -56.772400 -19.683600 22.357200 -24.328900 0.000322 -0.000009 1.478270 3.102520 -25.512700 -22.291500 -0.000108 -0.000004 54.937400 5.315270 -0.357296 -2.192480 -6.469440 -0.000000 -177.935000 -5.999110 -5.704930 39.081100 -0.000007 -0.000012 0.212025 -0.099936 64.762400 40.985400 -0.000006 -0.000013 -3.898000 -2.481760 -30.750000 11.754300 -0.000000 0.000003 0.002285 0.059925 -14.146200 -2.192510 6.469440 -0.000001 -172.180000 -2.180090 142.262000 -39.081100 -0.002282 -0.040193 0.149752 -0.222034 33.409700 -40.985400 0.000008 0.000006 -3.698590 -7.475470 -69.130800 -11.754300 -0.000006 -0.000006 -0.002673 0.204516 -8.275060
0.000000 0.000000 0.000000 0.000000 0.000000 -0.000000 -0.190745 86.151800 -23.566600 84.625600 0.902069 -9.568840 15.735700 0.000005 -0.000001 59.034600 85.223700 -55.449700 8.984550 -0.406207 -0.000000 0.600210 -5.137400 7.195600 16.377300 -0.000001 -0.000001 -5.130050 4.537700 -0.826866 6.456720 -0.000001 -0.000000 0.693255 9.533720 -8.729990 12.994200 -0.242716 4.980390 -92.931300 10.153200 -73.802700 5.348090 -0.000007 -0.000001 -72.344600 -12.420600 4.340630 24.328600 0.000019 0.000005 42.242600 24.071400 -65.809200 22.291600 -0.000001 0.000005 42.862000 4.069970 23.223900 12.994500 -0.242716 -4.980390 89.273000 2.333510 -72.694800 -5.348130 -0.000001 -0.000004 -61.111800 -16.459400 16.205600 -24.328900 0.000322 -0.000009 0.865596 1.712590 -26.859200 -22.291500 -0.000108 -0.000004 56.166900 5.329680 -0.775500 -2.192480 -6.469440 -0.000000 -174.881000 -6.242350 -12.734000 39.081100 -0.000007 -0.000012 0.347557 -0.059388 80.302200 40.985400 -0.000006 -0.000013 -4.201070 -7.217910 -31.989900 11.754300 -0.000000 0.000003 0.002310 0.061407 -14.086100 -2.192510 6.469440 -0.000001 -169.425000 0.857113 141.255000 -39.081100 -0.002282 -0.040193 0.150769 -0.128403 48.962900 -40.985400 0.000008 0.000006 -0.722515 -5.466870 -76.433000 -11.754300 -0.000006 -0.000006 -0.008639 0.260838 -5.978890
0.000000 0.000000 0.000000 0.000000 0.000000 -0.000000 -0.827902 83.837000 -15.283800 83.267100 0.883621 -8.499980 15.735700 0.000005 -0.000001 73.555200 84.760100 -69.695200 8.984550 -0.406207 -0.000000 2.406130 -3.144680 7.779990 16.377300 -0.000001 -0.000001 -6.516690 4.032770 -0.547513 6.456720 -0.000001 -0.000000 -0.966567 8.059530 -9.063560 12.994200 -0.242716 4.980390 -93.150100 10.486300 -73.175000 5.348090 -0.000007 -0.000001 -69.937100 -16.955200 8.158180 24.328600 0.000019 0.000005 36.669400 24.488100 -60.892700 22.291600 -0.000001 0.000005 42.785900 4.060400 23.361400 12.994500 -0.242716 -4.980390 88.877500 3.656440 -72.920100 -5.348130 -0.000001 -0.000004 -65.785200 -10.208500 7.652630 -24.328900 0.000322 -0.000009 0.578764 0.976624 -30.635100 -22.291500 -0.000108 -0.000004 54.829700 5.355630 -1.558870 -2.192480 -6.469440 -0.000000 -172.780000 -6.803950 -21.807400 39.081100 -0.000007 -0.000012 0.306776 0.012676 92.364300 40.985400 -0.000006 -0.000013 -2.464820 -6.217260 -33.758700 11.754300 -0.000000 0.000003 0.002362 0.064979 -13.941300 -2.192510 6.469440 -0.000001 -167.837000 0.957807 144.856000 -39.081100 -0.002282 -0.040193 -0.003477 0.004432 56.499500 -40.985400 0.000008 0.000006 -2.632760 -4.734370 -85.094000 -11.754300 -0.000006 -0.000006 -0.005931 0.237878 -6.916120
0.000000 0.000000 0.000000 0.000000 0.000000 -0.000000 -1.071640 83.467300 -6.904090 83.249500 0.338826 -8.008900 15.735700 0.000005 -0.000001 86.264300 84.666800 -82.511300 8.984550 -0.406207 -0.000000 2.917000 -0.852737 7.520020 16.377300 -0.000001 -0.000001 -6.849700 3.355700 -0.157663 6.456720 -0.000001 -0.000000 -1.210310 6.397810 -9.951540 12.994200 -0.242716 4.980390 -93.098900 9.924890 -72.561900 5.348090 -0.000007 -0.000001 -66.200400 -18.761500 13.381100 24.328600 0.000019 0.000005 36.020600 26.913400 -58.097600 22.291600 -0.000001 0.000005 42.582700 4.089100 22.946500 12.994500 -0.242716 -4.980390 88.749000 4.240000 -73.544300 -5.348130 -0.000001 -0.000004 -67.633100 -4.330290 2.164300 -24.328900 0.000322 -0.000009 2.222410 2.593140 -40.602300 -22.291500 -0.000108 -0.000004 54.656000 5.362590 -1.764880 -2.192480 -6.469440 -0.000000 -173.170000 -6.379300 -30.696200 39.081100 -0.000007 -0.000012 0.201051 0.027421 97.763600 40.985400 -0.000006 -0.000013 -2.524270 -3.452980 -38.747900 11.754300 -0.000000 0.000003 0.002401 0.068209 -13.810300 -2.192510 6.469440 -0.000001 -168.046000 1.387760 152.253000 -39.081100 -0.002282 -0.040193 -0.000440 0.002472 55.975100 -40.985400 0.000008 0.000006 -3.269250 -3.243650 -89.688100 -11.754300 -0.000006 -0.000006 -0.002364 0.200857 -8.423900
0.000000 0.000000 0.000000 0.000000 0.000000 -0.000000 -0.742505 85.046700 1.743120 85.433100 0.572106 -8.520860 15.735700 0.000005 -0.000001 97.723600 85.068400 -94.850400 8.984550 -0.406207 -0.000000 1.985080 1.179930 5.720670 16.377300 -0.000001 -0.000001 -6.761630 2.368640 0.259245 6.456720 -0.000001 -0.000000 -0.598689 4.164010 -9.699020 12.994200 -0.242716 4.980390 -92.851800 8.976750 -72.294000 5.348090 -0.000007 -0.000001 -61.662400 -19.924800 18.197200 24.328600 0.000019 0.000005 35.450600 29.119600 -55.647600 22.291600 -0.000001 0.000005 42.792800 4.095890 22.848900 12.994500 -0.242716 -4.980390 88.782700 4.262440 -74.046100 -5.348130 -0.000001 -0.000004 -68.138000 -0.689893 0.583706 -24.328900 0.000322 -0.000009 3.055610 2.147890 -54.928700 -22.291500 -0.000108 -0.000004 55.390600 5.354100 -1.502180 -2.192480 -6.469440 -0.000000 -176.598000 -4.048650 -38.082700 39.081100 -0.000007 -0.000012 0.078554 0.007737 95.617500 40.985400 -0.000006 -0.000013 -3.959550 -4.571080 -47.455200 11.754300 -0.000000 0.000003 0.002426 0.070601 -13.713400 -2.192510 6.469440 -0.000001 -171.322000 3.466990 161.297000 -39.081100 -0.002282 -0.040193 -0.006579 0.008488 49.187600 -40.985400 0.000008 0.000006 -4.215410 -0.202903 -88.391900 -11.754300 -0.000006 -0.000006 0.001949 0.122898 -11.589500
0.000000 0.000000 0.000000 0.000000 0.000000 -0.000000 0.000783 87.924400 10.616400 88.528100 0.438792 -10.085800 15.735700 0.000005 -0.000001 111.718000 85.485600 -110.226000 8.984550 -0.406207 -0.000000 0.583121 3.246500 2.965770 16.377300 -0.000001 -0.000001 -6.934760 1.246910 0.900431 6.456720 -0.000001 -0.000000 -0.131169 2.133640 -8.537080 12.994200 -0.242716 4.980390 -92.366300 7.414930 -72.244200 5.348090 -0.000007 -0.000001 -57.496100 -22.149600 22.108500 24.328600 0.000019 0.000005 34.099200 29.717800 -53.788100 22.291600 -0.000001 0.000005 43.649600 4.068970 23.237700 12.994500 -0.242716 -4.980390 89.002500 3.608290 -74.536500 -5.348130 -0.000001 -0.000004 -69.016900 0.998450 -0.182290 -24.328900 0.000322 -0.000009 5.295140 2.233350 -67.148700 -22.291500 -0.000108 -0.000004 53.134400 5.394170 -2.779210 -2.192480 -6.469440 -0.000000 178.893000 -0.797606 -42.981200 39.081100 -0.000007 -0.000012 -0.038958 0.002424 86.452400 40.985400 -0.000006 -0.000013 -4.140370 -7.834580 -55.673400 11.754300 -0.000000 0.000003 0.002425 0.070578 -13.714300 -2.192510 6.469440 -0.000001 -176.084000 5.559960 169.618000 -39.081100 -0.002282 -0.040193 -0.002740 0.007328 39.405100 -40.985400 0.000008 0.000006 -5.477440 2.362370 -78.885500 -11.754300 -0.000006 -0.000006 -0.004212 -0.053623 -18.754500
0.000000 0.000000 0.000000 0.000000 0.000000 -0.000000 0.877540 91.109500 19.430900 91.732200 -0.295097 -12.796000 15.735700 0.000005 -0.000001 129.385000 86.051700 -129.444000 8.984550 -0.406207 -0.000000 -1.662020 5.014280 -0.043868 16.377300 -0.000001 -0.000001 -6.746770 0.489877 1.378180 6.456720 -0.000001 -0.000000 0.502981 0.442950 -6.897720 12.994200 -0.242716 4.980390 -91.741900 5.386890 -72.050700 5.348090 -0.000007 -0.000001 -53.722800 -23.379400 26.121300 24.328600 0.000019 0.000005 35.103000 30.431000 -54.223400 22.291600 -0.000001 0.000005 44.491500 4.042630 23.618900 12.994500 -0.242716 -4.980390 89.320900 2.569640 -75.194400 -5.348130 -0.000001 -0.000004 -69.709500 2.798880 -0.762274 -24.328900 0.000322 -0.000009 9.402000 2.641440 -74.437900 -22.291500 -0.000108 -0.000004 52.162400 5.443320 -4.397540 -2.192480 -6.469440 -0.000000 175.512000 3.053590 -45.882700 39.081100 -0.000007 -0.000012 -0.051995 0.017091 71.810500 40.985400 -0.000006 -0.000013 -4.435100 -10.148900 -61.650600 11.754300 -0.000000 0.000003 0.002324 0.062302 -14.049800 -2.192510 6.469440 -0.000001 179.639000 6.181700 175.333000 -39.081100 -0.002282 -0.040193 0.014828 -0.020578 29.251800 -40.985400 0.000008 0.000006 -3.840120 1.589870 -63.105800 -11.754300 -0.000006 -0.000006 -0.047432 -0.288480 -28.446800
0.000000 0.000000 0.000000 0.000000 0.000000 -0.000000 1.339330 93.658800 28.262300 92.723600 -0.312829 -14.748000 15.735700 0.000005 -0.000001 146.249000 86.284700 -146.967000 8.984550 -0.406207 -0.000000 -3.608690 6.245890 -1.239510 16.377300 -0.000001 -0.000001 -6.690980 -0.018751 1.591330 6.456720 -0.000001 -0.000000 1.745440 -1.158210 -5.789650 12.994200 -0.242716 4.980390 -91.325600 3.981370 -71.567300 5.348090 -0.000007 -0.000001 -50.287800 -23.566700 29.394900 24.328600 0.000019 0.000005 36.890600 30.472600 -55.954200 22.291600 -0.000001 0.000005 45.179000 4.016330 23.994100 12.994500 -0.242716 -4.980390 89.549400 1.792330 -75.886500 -5.348130 -0.000001 -0.000004 -69.983900 3.891880 -0.830951 -24.328900 0.000322 -0.000009 10.144300 2.244700 -77.655800 -22.291500 -0.000108 -0.000004 53.081900 5.467290 -5.270370 -2.192480 -6.469440 -0.000000 176.120000 6.662340 -45.701400 39.081100 -0.000007 -0.000012 -0.015836 0.011617 53.747900 40.985400 -0.000006 -0.000013 -3.524590 -7.982080 -64.442400 11.754300 -0.000000 0.000003 0.002386 0.066932 -13.862100 -2.192510 6.469440 -0.000001 178.713000 5.227050 179.474000 -39.081100 -0.002282 -0.040193 0.016722 -0.033810 21.624700 -40.985400 0.000008 0.000006 -0.056918 -0.400336 -45.319700 -11.754300 -0.000006 -0.000006 -0.041880 -0.267516 -27.567600
